<svg width="53" height="53" viewBox="0 0 53 53" fill="none" xmlns="http://www.w3.org/2000/svg">
<rect x="0.0258789" y="0.511597" width="52.2425" height="52.2425" rx="14.1196" fill="#F2ECFF"/>
<path d="M19.0874 16.0431C19.0874 15.7311 18.9634 15.4318 18.7428 15.2111C18.5221 14.9905 18.2228 14.8665 17.9108 14.8665C17.5987 14.8665 17.2994 14.9905 17.0788 15.2111C16.8581 15.4318 16.7341 15.7311 16.7341 16.0431V17.2198H15.5575C15.2454 17.2198 14.9461 17.3437 14.7255 17.5644C14.5048 17.7851 14.3809 18.0843 14.3809 18.3964C14.3809 18.7085 14.5048 19.0077 14.7255 19.2284C14.9461 19.4491 15.2454 19.573 15.5575 19.573H16.7341V20.7497C16.7341 21.0617 16.8581 21.361 17.0788 21.5817C17.2994 21.8023 17.5987 21.9263 17.9108 21.9263C18.2228 21.9263 18.5221 21.8023 18.7428 21.5817C18.9634 21.361 19.0874 21.0617 19.0874 20.7497V19.573H20.264C20.5761 19.573 20.8754 19.4491 21.096 19.2284C21.3167 19.0077 21.4407 18.7085 21.4407 18.3964C21.4407 18.0843 21.3167 17.7851 21.096 17.5644C20.8754 17.3437 20.5761 17.2198 20.264 17.2198H19.0874V16.0431ZM28.5005 16.0431C28.5005 15.7311 28.3765 15.4318 28.1558 15.2111C27.9352 14.9905 27.6359 14.8665 27.3238 14.8665C27.0118 14.8665 26.7125 14.9905 26.4918 15.2111C26.2712 15.4318 26.1472 15.7311 26.1472 16.0431C26.1472 17.7422 25.913 20.1331 24.7799 22.0663C23.7045 23.8983 21.7466 25.4562 17.9108 25.4562C17.5987 25.4562 17.2994 25.5802 17.0788 25.8008C16.8581 26.0215 16.7341 26.3208 16.7341 26.6328C16.7341 26.9449 16.8581 27.2442 17.0788 27.4648C17.2994 27.6855 17.5987 27.8095 17.9108 27.8095C19.4733 27.8095 21.5371 28.2837 23.1891 29.6568C24.7964 30.9899 26.1472 33.2867 26.1472 37.2225C26.1472 37.5346 26.2712 37.8339 26.4918 38.0545C26.7125 38.2752 27.0118 38.3992 27.3238 38.3992C27.6359 38.3992 27.9352 38.2752 28.1558 38.0545C28.3765 37.8339 28.5005 37.5346 28.5005 37.2225C28.5005 35.5235 28.7346 33.1326 29.8677 31.1994C30.9432 29.3673 32.9011 27.8095 36.7369 27.8095C37.049 27.8095 37.3482 27.6855 37.5689 27.4648C37.7896 27.2442 37.9135 26.9449 37.9135 26.6328C37.9135 26.3208 37.7896 26.0215 37.5689 25.8008C37.3482 25.5802 37.049 25.4562 36.7369 25.4562C35.1743 25.4562 33.1105 24.982 31.4585 23.6089C29.8512 22.2758 28.5005 19.979 28.5005 16.0431ZM26.8085 23.2571C27.0285 22.8829 27.2203 22.4981 27.3885 22.1099C27.9944 23.3858 28.8699 24.5151 29.9548 25.4197C30.4772 25.8539 31.0267 26.2175 31.5879 26.5187C29.8877 27.3423 28.6746 28.5825 27.8392 30.0086C27.6223 30.3786 27.4286 30.7618 27.2591 31.1558C26.6532 29.8798 25.7777 28.7506 24.6929 27.8459C24.1865 27.4261 23.6394 27.058 23.0597 26.747C24.7599 25.9233 25.9731 24.6832 26.8096 23.2571H26.8085Z" fill="#673AB7"/>
</svg>
