<svg width="53" height="53" viewBox="0 0 53 53" fill="none" xmlns="http://www.w3.org/2000/svg">
<rect x="0.378906" y="0.434441" width="52.2425" height="52.2425" rx="14.1196" fill="#F2ECFF"/>
<path d="M38.3401 25.312L27.7451 14.7179C27.5817 14.5545 27.3877 14.4249 27.1742 14.3365C26.9608 14.248 26.7319 14.2025 26.5008 14.2025C26.2698 14.2025 26.0409 14.248 25.8274 14.3365C25.6139 14.4249 25.4199 14.5545 25.2565 14.7179L14.6624 25.3129C14.3327 25.6429 14.1475 26.0903 14.1475 26.5568C14.1475 27.0233 14.3327 27.4707 14.6624 27.8006L25.2565 38.3956C25.5865 38.7254 26.0339 38.9106 26.5004 38.9106C26.9669 38.9106 27.4143 38.7254 27.7442 38.3956L38.3401 27.8006C38.5035 27.6372 38.6332 27.4432 38.7216 27.2297C38.81 27.0162 38.8555 26.7874 38.8555 26.5563C38.8555 26.3252 38.81 26.0964 38.7216 25.8829C38.6332 25.6694 38.5035 25.4754 38.3401 25.312ZM26.5008 33.6161C26.239 33.6161 25.9831 33.5385 25.7654 33.393C25.5477 33.2476 25.3781 33.0409 25.2779 32.799C25.1777 32.5571 25.1515 32.2909 25.2026 32.0342C25.2536 31.7774 25.3797 31.5415 25.5648 31.3564C25.75 31.1713 25.9858 31.0452 26.2426 30.9941C26.4994 30.9431 26.7655 30.9693 27.0074 31.0695C27.2493 31.1697 27.456 31.3393 27.6015 31.557C27.7469 31.7747 27.8246 32.0306 27.8246 32.2924C27.8246 32.6435 27.6851 32.9802 27.4368 33.2284C27.1886 33.4767 26.8519 33.6161 26.5008 33.6161ZM27.4936 27.6577V29.3141H25.5081V25.6739H27.3833C27.8222 25.6739 28.243 25.4995 28.5533 25.1892C28.8636 24.8789 29.038 24.458 29.038 24.0192C29.038 23.5804 28.8636 23.1595 28.5533 22.8492C28.243 22.5389 27.8222 22.3646 27.3833 22.3646H25.6184C25.1797 22.365 24.7591 22.5395 24.4489 22.8497C24.1387 23.1599 23.9642 23.5805 23.9637 24.0192V24.4604H21.9782V24.0192C21.9793 23.0541 22.3632 22.1289 23.0456 21.4465C23.7281 20.7641 24.6533 20.3802 25.6184 20.379H27.3833C28.3387 20.3798 29.2555 20.7561 29.9358 21.4268C30.6162 22.0975 31.0056 23.0088 31.0201 23.964C31.0346 24.9193 30.6729 25.842 30.0132 26.533C29.3535 27.224 28.4485 27.6279 27.4936 27.6577Z" fill="#673AB7"/>
</svg>
