<svg width="226" height="239" viewBox="0 0 226 239" fill="none" xmlns="http://www.w3.org/2000/svg">
<path d="M8.02544 100.49C5.11293 108.135 6.08747 117.947 6.08747 126.043C6.08747 134.842 5.44148 143.635 5.44148 152.456C5.44148 154.916 4.35843 160.834 5.58503 163.151C6.76907 165.388 10.0041 167.329 11.3989 169.611C14.0916 174.017 19.6871 177.813 23.4933 181.239C26.5955 184.031 29.5511 187.018 32.9319 189.493C39.7453 194.481 47.0564 198.182 53.1729 204.064C57.1544 207.892 62.2051 210.387 66.4515 213.861C69.6432 216.473 72.4652 219.942 76.1414 221.613C76.9992 222.003 78.4262 221.656 78.9407 222.582C79.876 224.266 80.9523 225.096 82.3142 226.458C84.2437 228.388 85.8357 230.421 88.1281 231.769C90.9588 233.435 92.7238 235.428 95.7364 231.913C98.6257 228.542 102.203 225.805 105.426 222.726C109.092 219.223 112.886 215.912 116.48 212.318C121.042 207.756 125.735 202.426 130.727 198.393C137.137 193.217 143.534 187.933 148.528 181.275C151.313 177.561 156.285 175.583 158.828 172.051C160.352 169.934 163.854 169.054 161.448 166.381C159.645 164.378 158.163 162.056 156.28 160.172C153.197 157.09 150.451 153.807 147.128 150.877C143.446 147.631 139.362 145.084 135.931 141.833C132.43 138.516 127.655 135.909 123.801 132.79C120.988 130.513 117.238 127.092 113.824 125.827C111.866 125.102 111.033 123.788 109.41 122.49M84.5751 107.919C76.8514 104.897 71.6921 97.9062 63.1857 97.9062C60.3535 97.9062 57.5117 97.9705 54.6802 97.9062C52.0927 97.8474 49.5745 96.673 46.9283 96.6142C41.5273 96.4942 36.1092 96.6142 30.7068 96.6142C29.1411 96.6142 9.22055 94.87 8.02544 97.2602" stroke="#3A3A3A" stroke-width="10" stroke-linecap="round"/>
<path d="M39.6794 129.56C36.677 128.988 32.8943 128.164 34.6551 132.646C35.5827 135.007 38.5468 137.886 41.2944 137.276C43.0711 136.881 46.7853 135.197 46.7853 133.077C46.7853 130.606 44.722 128.914 42.2634 128.914C39.7924 128.914 39.0334 130.564 39.0334 132.933C39.0334 133.752 38.8413 134.863 39.0693 135.661C39.2338 136.236 40.8033 136.22 40.9355 135.625C41.3753 133.646 41.0592 130.276 39.3564 128.914C38.4737 128.207 36.4533 126.976 38.3874 126.976" stroke="#3A3A3A" stroke-width="10" stroke-linecap="round"/>
<g clip-path="url(#clip0)">
<path d="M144.819 108.077C144.819 108.077 145.013 107.883 145.25 107.646L190.893 62.003C191.13 61.766 191.343 61.553 191.366 61.5298C191.389 61.5066 191.602 61.2935 191.839 61.0566L216.022 36.8733C216.026 36.8691 216.026 36.862 216.022 36.8576L189.029 9.86532C189.025 9.8611 189.018 9.8611 189.014 9.86532L164.83 34.0486C164.594 34.2855 164.38 34.4986 164.357 34.5218C164.334 34.545 164.121 34.758 163.884 34.995L117.813 81.0666C117.811 81.068 117.81 81.0694 117.81 81.0712L106 119.873C105.998 119.882 106.006 119.89 106.014 119.887L144.236 108.254C144.557 108.157 144.819 108.077 144.819 108.077ZM114.61 111.264L120.506 91.8893C120.509 91.8813 120.519 91.8787 120.524 91.8846L134.003 105.363C134.009 105.369 134.006 105.379 133.998 105.381L114.623 111.278C114.615 111.281 114.607 111.273 114.61 111.264Z" fill="#3A3A3A"/>
<path d="M223.75 24.4763C226.751 21.4753 226.751 16.5652 223.75 13.5642L212.549 2.36298C209.548 -0.637719 204.638 -0.637719 201.637 2.36298L196.044 7.95564C196.04 7.95986 196.04 7.96689 196.044 7.97134L218.142 30.0687C218.146 30.0729 218.153 30.0729 218.157 30.0687L223.75 24.4763Z" fill="#3A3A3A"/>
</g>
<defs>
<clipPath id="clip0">
<rect width="120" height="120" fill="white" transform="translate(106)"/>
</clipPath>
</defs>
</svg>
