<svg width="28" height="28" viewBox="0 0 28 28" fill="none"
  xmlns="http://www.w3.org/2000/svg">
  <path fill-rule="evenodd" clip-rule="evenodd" d="M10.9659 16.4965C13.7858 19.335 18.3577 19.335 21.1775 16.4965C23.9974 13.658 23.9974 9.05588 21.1775 6.21738C18.3577 3.37887 13.7858 3.37887 10.9659 6.21738C8.1461 9.05588 8.1461 13.658 10.9659 16.4965ZM24.0495 19.3875C20.145 23.3179 14.0905 23.7652 9.6966 20.7295L3.46681 27.0005C2.67373 27.7988 1.38789 27.7988 0.594811 27.0005C-0.19827 26.2022 -0.19827 24.9078 0.594811 24.1095L6.813 17.8502C3.74002 13.4212 4.167 7.2793 8.09394 3.32637C12.5 -1.10879 19.6435 -1.10879 24.0495 3.32637C28.4555 7.76153 28.4555 14.9524 24.0495 19.3875ZM11.5084 16.0147C12.3015 16.813 13.5874 16.813 14.3804 16.0147C15.1735 15.2163 15.1735 13.922 14.3804 13.1237C13.5874 12.3253 12.3015 12.3253 11.5084 13.1237C10.7153 13.922 10.7153 15.2163 11.5084 16.0147Z" fill="#673AB7"/>
</svg>
