<svg width="172" height="197" viewBox="0 0 172 197" fill="none"
  xmlns="http://www.w3.org/2000/svg">
  <path d="M153.438 82.99L88.938 18.49C86.358 15.91 82.7747 14.3333 78.833 14.3333H28.6663C20.783 14.3333 14.333 20.7833 14.333 28.6667V78.8333C14.333 82.775 15.9097 86.3584 18.5613 89.01L83.0614 153.51C85.6414 156.09 89.2247 157.667 93.1663 157.667C97.108 157.667 100.691 156.09 103.271 153.438L153.438 103.272C156.09 100.692 157.666 97.1084 157.666 93.1667C157.666 89.225 156.018 85.57 153.438 82.99ZM93.1663 143.405L28.6663 78.8333V28.6667H78.833V28.595L143.333 93.095L93.1663 143.405Z" fill="#3A3A3A"/>
  <path d="M46.583 57.3333C52.5201 57.3333 57.333 52.5204 57.333 46.5833C57.333 40.6463 52.5201 35.8333 46.583 35.8333C40.6459 35.8333 35.833 40.6463 35.833 46.5833C35.833 52.5204 40.6459 57.3333 46.583 57.3333Z" fill="#3A3A3A"/>
  <path d="M31.875 191H28.4766V173H31.875V191ZM34.1484 184.543C34.1484 183.285 34.3906 182.164 34.875 181.18C35.3594 180.195 36.0547 179.434 36.9609 178.895C37.875 178.355 38.9336 178.086 40.1367 178.086C41.8477 178.086 43.2422 178.609 44.3203 179.656C45.4062 180.703 46.0117 182.125 46.1367 183.922L46.1602 184.789C46.1602 186.734 45.6172 188.297 44.5312 189.477C43.4453 190.648 41.9883 191.234 40.1602 191.234C38.332 191.234 36.8711 190.648 35.7773 189.477C34.6914 188.305 34.1484 186.711 34.1484 184.695V184.543ZM37.5352 184.789C37.5352 185.992 37.7617 186.914 38.2148 187.555C38.668 188.188 39.3164 188.504 40.1602 188.504C40.9805 188.504 41.6211 188.191 42.082 187.566C42.543 186.934 42.7734 185.926 42.7734 184.543C42.7734 183.363 42.543 182.449 42.082 181.801C41.6211 181.152 40.9727 180.828 40.1367 180.828C39.3086 180.828 38.668 181.152 38.2148 181.801C37.7617 182.441 37.5352 183.438 37.5352 184.789ZM53.5195 188.504C54.1445 188.504 54.6523 188.332 55.043 187.988C55.4336 187.645 55.6367 187.188 55.6523 186.617H58.8281C58.8203 187.477 58.5859 188.266 58.125 188.984C57.6641 189.695 57.0312 190.25 56.2266 190.648C55.4297 191.039 54.5469 191.234 53.5781 191.234C51.7656 191.234 50.3359 190.66 49.2891 189.512C48.2422 188.355 47.7188 186.762 47.7188 184.73V184.508C47.7188 182.555 48.2383 180.996 49.2773 179.832C50.3164 178.668 51.7422 178.086 53.5547 178.086C55.1406 178.086 56.4102 178.539 57.3633 179.445C58.3242 180.344 58.8125 181.543 58.8281 183.043H55.6523C55.6367 182.387 55.4336 181.855 55.043 181.449C54.6523 181.035 54.1367 180.828 53.4961 180.828C52.707 180.828 52.1094 181.117 51.7031 181.695C51.3047 182.266 51.1055 183.195 51.1055 184.484V184.836C51.1055 186.141 51.3047 187.078 51.7031 187.648C52.1016 188.219 52.707 188.504 53.5195 188.504ZM68.1094 191C67.9531 190.695 67.8398 190.316 67.7695 189.863C66.9492 190.777 65.8828 191.234 64.5703 191.234C63.3281 191.234 62.2969 190.875 61.4766 190.156C60.6641 189.438 60.2578 188.531 60.2578 187.438C60.2578 186.094 60.7539 185.062 61.7461 184.344C62.7461 183.625 64.1875 183.262 66.0703 183.254H67.6289V182.527C67.6289 181.941 67.4766 181.473 67.1719 181.121C66.875 180.77 66.4023 180.594 65.7539 180.594C65.1836 180.594 64.7344 180.73 64.4062 181.004C64.0859 181.277 63.9258 181.652 63.9258 182.129H60.5391C60.5391 181.395 60.7656 180.715 61.2188 180.09C61.6719 179.465 62.3125 178.977 63.1406 178.625C63.9688 178.266 64.8984 178.086 65.9297 178.086C67.4922 178.086 68.7305 178.48 69.6445 179.27C70.5664 180.051 71.0273 181.152 71.0273 182.574V188.07C71.0352 189.273 71.2031 190.184 71.5312 190.801V191H68.1094ZM65.3086 188.645C65.8086 188.645 66.2695 188.535 66.6914 188.316C67.1133 188.09 67.4258 187.789 67.6289 187.414V185.234H66.3633C64.668 185.234 63.7656 185.82 63.6562 186.992L63.6445 187.191C63.6445 187.613 63.793 187.961 64.0898 188.234C64.3867 188.508 64.793 188.645 65.3086 188.645ZM77.2031 191H73.8047V173H77.2031V191ZM89.3906 193.648H78.7148V191H89.3906V193.648ZM90.1875 184.543C90.1875 183.285 90.4297 182.164 90.9141 181.18C91.3984 180.195 92.0938 179.434 93 178.895C93.9141 178.355 94.9727 178.086 96.1758 178.086C97.8867 178.086 99.2812 178.609 100.359 179.656C101.445 180.703 102.051 182.125 102.176 183.922L102.199 184.789C102.199 186.734 101.656 188.297 100.57 189.477C99.4844 190.648 98.0273 191.234 96.1992 191.234C94.3711 191.234 92.9102 190.648 91.8164 189.477C90.7305 188.305 90.1875 186.711 90.1875 184.695V184.543ZM93.5742 184.789C93.5742 185.992 93.8008 186.914 94.2539 187.555C94.707 188.188 95.3555 188.504 96.1992 188.504C97.0195 188.504 97.6602 188.191 98.1211 187.566C98.582 186.934 98.8125 185.926 98.8125 184.543C98.8125 183.363 98.582 182.449 98.1211 181.801C97.6602 181.152 97.0117 180.828 96.1758 180.828C95.3477 180.828 94.707 181.152 94.2539 181.801C93.8008 182.441 93.5742 183.438 93.5742 184.789ZM105.211 191V180.805H103.324V178.32H105.211V177.242C105.211 175.82 105.617 174.719 106.43 173.938C107.25 173.148 108.395 172.754 109.863 172.754C110.332 172.754 110.906 172.832 111.586 172.988L111.551 175.613C111.27 175.543 110.926 175.508 110.52 175.508C109.246 175.508 108.609 176.105 108.609 177.301V178.32H112.781V177.734C112.797 176.141 113.285 174.914 114.246 174.055C115.215 173.188 116.578 172.754 118.336 172.754C119.383 172.754 120.668 172.984 122.191 173.445L121.699 176.246C120.934 176.02 120.336 175.875 119.906 175.812C119.484 175.742 119.031 175.707 118.547 175.707C116.969 175.707 116.18 176.406 116.18 177.805V178.32H118.676V180.805H116.18V191H112.781V180.805H108.609V191H105.211ZM123.762 191H120.363V178.32H123.762V191ZM131.848 188.504C132.473 188.504 132.98 188.332 133.371 187.988C133.762 187.645 133.965 187.188 133.98 186.617H137.156C137.148 187.477 136.914 188.266 136.453 188.984C135.992 189.695 135.359 190.25 134.555 190.648C133.758 191.039 132.875 191.234 131.906 191.234C130.094 191.234 128.664 190.66 127.617 189.512C126.57 188.355 126.047 186.762 126.047 184.73V184.508C126.047 182.555 126.566 180.996 127.605 179.832C128.645 178.668 130.07 178.086 131.883 178.086C133.469 178.086 134.738 178.539 135.691 179.445C136.652 180.344 137.141 181.543 137.156 183.043H133.98C133.965 182.387 133.762 181.855 133.371 181.449C132.98 181.035 132.465 180.828 131.824 180.828C131.035 180.828 130.438 181.117 130.031 181.695C129.633 182.266 129.434 183.195 129.434 184.484V184.836C129.434 186.141 129.633 187.078 130.031 187.648C130.43 188.219 131.035 188.504 131.848 188.504ZM144.926 191.234C143.066 191.234 141.551 190.664 140.379 189.523C139.215 188.383 138.633 186.863 138.633 184.965V184.637C138.633 183.363 138.879 182.227 139.371 181.227C139.863 180.219 140.559 179.445 141.457 178.906C142.363 178.359 143.395 178.086 144.551 178.086C146.285 178.086 147.648 178.633 148.641 179.727C149.641 180.82 150.141 182.371 150.141 184.379V185.762H142.066C142.176 186.59 142.504 187.254 143.051 187.754C143.605 188.254 144.305 188.504 145.148 188.504C146.453 188.504 147.473 188.031 148.207 187.086L149.871 188.949C149.363 189.668 148.676 190.23 147.809 190.637C146.941 191.035 145.98 191.234 144.926 191.234ZM144.539 180.828C143.867 180.828 143.32 181.055 142.898 181.508C142.484 181.961 142.219 182.609 142.102 183.453H146.812V183.184C146.797 182.434 146.594 181.855 146.203 181.449C145.812 181.035 145.258 180.828 144.539 180.828ZM159.199 181.496C158.738 181.434 158.332 181.402 157.98 181.402C156.699 181.402 155.859 181.836 155.461 182.703V191H152.074V178.32H155.273L155.367 179.832C156.047 178.668 156.988 178.086 158.191 178.086C158.566 178.086 158.918 178.137 159.246 178.238L159.199 181.496Z" fill="#3A3A3A"/>
</svg>
