<svg width="294" height="104" viewBox="0 0 294 104" fill="none" xmlns="http://www.w3.org/2000/svg">
<path fill-rule="evenodd" clip-rule="evenodd" d="M177.598 70.2881C182.637 75.3276 190.808 75.3276 195.848 70.2881C200.887 65.2486 200.887 57.0779 195.848 52.0384C190.808 46.9989 182.637 46.9989 177.598 52.0384C172.558 57.0779 172.558 65.2486 177.598 70.2881ZM200.98 75.4208C194.002 82.3989 183.182 83.1931 175.329 77.8034L164.196 88.937C162.778 90.3543 160.48 90.3543 159.063 88.937C157.646 87.5196 157.646 85.2216 159.063 83.8043L170.176 72.6914C164.684 64.8282 165.447 53.9237 172.465 46.9057C180.339 39.0314 193.106 39.0314 200.98 46.9057C208.855 54.7799 208.855 67.5466 200.98 75.4208ZM178.567 69.4326C179.985 70.85 182.283 70.85 183.7 69.4326C185.117 68.0153 185.117 65.7173 183.7 64.2999C182.283 62.8825 179.985 62.8825 178.567 64.2999C177.15 65.7173 177.15 68.0153 178.567 69.4326Z" fill="white"/>
<path d="M17.6807 27.4717C17.6807 28.5231 17.4731 29.5054 17.0581 30.4185C16.6707 31.3315 16.1312 32.134 15.4395 32.8257C14.7477 33.4897 13.9315 34.0293 12.9907 34.4443C12.0776 34.8317 11.0954 35.0254 10.0439 35.0254C8.99251 35.0254 7.99642 34.8317 7.05566 34.4443C6.14258 34.0293 5.34017 33.4897 4.64844 32.8257C3.98438 32.134 3.44482 31.3315 3.02979 30.4185C2.64242 29.5054 2.44873 28.5231 2.44873 27.4717C2.44873 26.4479 2.64242 25.4795 3.02979 24.5664C3.44482 23.6257 3.98438 22.8232 4.64844 22.1592C5.34017 21.4674 6.14258 20.9279 7.05566 20.5405C7.99642 20.1255 8.99251 19.918 10.0439 19.918C11.0954 19.918 12.0776 20.1255 12.9907 20.5405C13.9315 20.9279 14.7477 21.4674 15.4395 22.1592C16.1312 22.8232 16.6707 23.6257 17.0581 24.5664C17.4731 25.4795 17.6807 26.4479 17.6807 27.4717ZM15.73 84H4.31641V39.5493H15.73V84ZM63.252 48.3896L54.9512 56.7319C54.5361 55.5698 53.9689 54.5322 53.2495 53.6191C52.5301 52.6784 51.7139 51.8898 50.8008 51.2534C49.9154 50.617 48.9469 50.1328 47.8955 49.8008C46.8441 49.4688 45.765 49.3027 44.6582 49.3027C43.1087 49.3027 41.6423 49.6209 40.2588 50.2573C38.903 50.8937 37.7132 51.793 36.6895 52.9551C35.6934 54.0895 34.9048 55.4453 34.3237 57.0225C33.7427 58.5996 33.4521 60.3428 33.4521 62.252C33.4521 63.8014 33.7427 65.2541 34.3237 66.6099C34.9048 67.9657 35.6934 69.1554 36.6895 70.1792C37.7132 71.203 38.903 72.0054 40.2588 72.5864C41.6423 73.1675 43.1087 73.458 44.6582 73.458C45.765 73.458 46.8302 73.3058 47.854 73.0015C48.8778 72.6971 49.8324 72.2682 50.7178 71.7148C51.6309 71.1338 52.4333 70.4421 53.125 69.6396C53.8444 68.8096 54.4255 67.8965 54.8682 66.9004L63.1689 75.2427C62.1175 76.7368 60.9001 78.0788 59.5166 79.2686C58.1608 80.4583 56.6805 81.4683 55.0757 82.2983C53.4985 83.1284 51.8245 83.751 50.0537 84.166C48.3105 84.6087 46.512 84.8301 44.6582 84.8301C41.5316 84.8301 38.5848 84.249 35.8179 83.0869C33.0786 81.8971 30.6714 80.2785 28.5962 78.231C26.5487 76.1834 24.93 73.79 23.7402 71.0508C22.5505 68.3115 21.9556 65.3786 21.9556 62.252C21.9556 58.8486 22.5505 55.6667 23.7402 52.7061C24.93 49.7454 26.5487 47.1722 28.5962 44.9863C30.6714 42.7728 33.0786 41.0296 35.8179 39.7568C38.5848 38.484 41.5316 37.8477 44.6582 37.8477C46.512 37.8477 48.3244 38.0828 50.0952 38.5532C51.8937 39.0236 53.5954 39.7153 55.2002 40.6284C56.8327 41.5138 58.3268 42.6068 59.6826 43.9072C61.0661 45.2077 62.2559 46.7018 63.252 48.3896ZM111.106 61.3804C111.106 64.7007 110.511 67.7996 109.321 70.6772C108.132 73.5272 106.513 76.0036 104.465 78.1064C102.418 80.1816 100.011 81.828 97.2437 83.0454C94.5044 84.2352 91.5576 84.8301 88.4033 84.8301C85.2767 84.8301 82.3299 84.2352 79.563 83.0454C76.8237 81.828 74.4165 80.1816 72.3413 78.1064C70.2938 76.0036 68.6751 73.5272 67.4854 70.6772C66.2956 67.7996 65.7007 64.7007 65.7007 61.3804C65.7007 58.0047 66.2956 54.8781 67.4854 52.0005C68.6751 49.1229 70.2938 46.6465 72.3413 44.5713C74.4165 42.4684 76.8237 40.8221 79.563 39.6323C82.3299 38.4425 85.2767 37.8477 88.4033 37.8477C91.5576 37.8477 94.5044 38.4149 97.2437 39.5493C100.011 40.6561 102.418 42.2471 104.465 44.3223C106.513 46.3698 108.132 48.8462 109.321 51.7515C110.511 54.6291 111.106 57.8387 111.106 61.3804ZM99.6924 61.3804C99.6924 59.5542 99.388 57.9079 98.7793 56.4414C98.1982 54.9473 97.3958 53.6745 96.3721 52.623C95.3483 51.5439 94.1447 50.7277 92.7612 50.1743C91.4054 49.5933 89.9528 49.3027 88.4033 49.3027C86.8538 49.3027 85.3874 49.5933 84.0039 50.1743C82.6481 50.7277 81.4583 51.5439 80.4346 52.623C79.4385 53.6745 78.6499 54.9473 78.0688 56.4414C77.4878 57.9079 77.1973 59.5542 77.1973 61.3804C77.1973 63.0959 77.4878 64.6868 78.0688 66.1533C78.6499 67.6198 79.4385 68.8926 80.4346 69.9717C81.4583 71.0508 82.6481 71.9085 84.0039 72.5449C85.3874 73.1536 86.8538 73.458 88.4033 73.458C89.9528 73.458 91.4054 73.1675 92.7612 72.5864C94.1447 72.0054 95.3483 71.1891 96.3721 70.1377C97.3958 69.0863 98.1982 67.8135 98.7793 66.3193C99.388 64.8252 99.6924 63.1789 99.6924 61.3804ZM128.704 84H117.373V39.5493H120.112L123.848 43.8657C125.674 42.2056 127.735 40.9328 130.032 40.0474C132.356 39.1343 134.777 38.6777 137.295 38.6777C140.007 38.6777 142.566 39.2035 144.973 40.2549C147.38 41.2786 149.483 42.7036 151.282 44.5298C153.08 46.3283 154.491 48.445 155.515 50.8799C156.567 53.2871 157.092 55.8604 157.092 58.5996V84H145.762V58.5996C145.762 57.4375 145.54 56.3446 145.098 55.3208C144.655 54.2694 144.046 53.3563 143.271 52.5815C142.497 51.8068 141.597 51.1981 140.574 50.7554C139.55 50.3127 138.457 50.0913 137.295 50.0913C136.105 50.0913 134.985 50.3127 133.933 50.7554C132.882 51.1981 131.969 51.8068 131.194 52.5815C130.419 53.3563 129.81 54.2694 129.368 55.3208C128.925 56.3446 128.704 57.4375 128.704 58.5996V84ZM208.142 61.3804C208.142 64.7007 207.547 67.7996 206.357 70.6772C205.168 73.5272 203.549 76.0036 201.501 78.1064C199.454 80.1816 197.047 81.828 194.28 83.0454C191.541 84.2352 188.594 84.8301 185.439 84.8301C182.313 84.8301 179.366 84.2352 176.599 83.0454C173.86 81.828 171.453 80.1816 169.377 78.1064C167.33 76.0036 165.711 73.5272 164.521 70.6772C163.332 67.7996 162.737 64.7007 162.737 61.3804C162.737 58.0047 163.332 54.8781 164.521 52.0005C165.711 49.1229 167.33 46.6465 169.377 44.5713C171.453 42.4684 173.86 40.8221 176.599 39.6323C179.366 38.4425 182.313 37.8477 185.439 37.8477C188.594 37.8477 191.541 38.4149 194.28 39.5493C197.047 40.6561 199.454 42.2471 201.501 44.3223C203.549 46.3698 205.168 48.8462 206.357 51.7515C207.547 54.6291 208.142 57.8387 208.142 61.3804ZM196.729 61.3804C196.729 59.5542 196.424 57.9079 195.815 56.4414C195.234 54.9473 194.432 53.6745 193.408 52.623C192.384 51.5439 191.181 50.7277 189.797 50.1743C188.442 49.5933 186.989 49.3027 185.439 49.3027C183.89 49.3027 182.424 49.5933 181.04 50.1743C179.684 50.7277 178.494 51.5439 177.471 52.623C176.475 53.6745 175.686 54.9473 175.105 56.4414C174.524 57.9079 174.233 59.5542 174.233 61.3804C174.233 63.0959 174.524 64.6868 175.105 66.1533C175.686 67.6198 176.475 68.8926 177.471 69.9717C178.494 71.0508 179.684 71.9085 181.04 72.5449C182.424 73.1536 183.89 73.458 185.439 73.458C186.989 73.458 188.442 73.1675 189.797 72.5864C191.181 72.0054 192.384 71.1891 193.408 70.1377C194.432 69.0863 195.234 67.8135 195.815 66.3193C196.424 64.8252 196.729 63.1789 196.729 61.3804ZM270.522 67.938C270.522 70.2622 270.08 72.4619 269.194 74.5371C268.309 76.5846 267.091 78.3693 265.542 79.8911C264.02 81.4129 262.222 82.6165 260.146 83.502C258.099 84.3874 255.899 84.8301 253.547 84.8301C251.444 84.8301 249.425 84.4704 247.488 83.751C245.551 83.0039 243.794 81.9248 242.217 80.5137C240.667 81.9248 238.924 83.0039 236.987 83.751C235.078 84.4704 233.058 84.8301 230.928 84.8301C228.576 84.8301 226.376 84.3874 224.329 83.502C222.281 82.6165 220.483 81.4129 218.933 79.8911C217.411 78.3693 216.208 76.5846 215.322 74.5371C214.437 72.4619 213.994 70.2622 213.994 67.938V39.6323H225.325V67.938C225.325 68.7127 225.463 69.446 225.74 70.1377C226.044 70.8018 226.445 71.3966 226.943 71.9224C227.469 72.4204 228.064 72.8216 228.728 73.126C229.42 73.4027 230.153 73.541 230.928 73.541C231.702 73.541 232.436 73.4027 233.127 73.126C233.819 72.8216 234.428 72.4204 234.954 71.9224C235.479 71.3966 235.881 70.8018 236.157 70.1377C236.462 69.446 236.614 68.7127 236.614 67.938V39.6323H247.903V67.938C247.903 68.7127 248.055 69.446 248.359 70.1377C248.664 70.8018 249.065 71.3966 249.563 71.9224C250.089 72.4204 250.684 72.8216 251.348 73.126C252.039 73.4027 252.773 73.541 253.547 73.541C254.322 73.541 255.055 73.4027 255.747 73.126C256.439 72.8216 257.034 72.4204 257.532 71.9224C258.057 71.3966 258.472 70.8018 258.777 70.1377C259.081 69.446 259.233 68.7127 259.233 67.938V39.6323H270.522V67.938Z" fill="white"/>
</svg>
