<svg width="189" height="26" viewBox="0 0 189 26" fill="none" xmlns="http://www.w3.org/2000/svg">
<path d="M40.2205 16.2093C40.0511 16.2093 39.9268 16.1358 39.8478 15.989L36.8318 10.7365C36.7302 10.5671 36.5946 10.3129 36.4252 9.97404L36.3574 9.99098C36.38 10.1943 36.3913 10.5049 36.3913 10.9229V19.1744C36.3913 19.4229 36.1654 19.5471 35.7136 19.5471H35.5949C35.1431 19.5471 34.9172 19.4229 34.9172 19.1744V7.99165C34.9172 7.74314 35.1431 7.61889 35.5949 7.61889H36.2049C36.5664 7.61889 36.8036 7.72055 36.9165 7.92387L40.1189 13.4814C40.3222 13.8315 40.469 14.1873 40.5594 14.5488C40.6498 14.2664 40.8248 13.8936 41.0846 13.4305L44.2023 7.92387C44.3152 7.72055 44.5524 7.61889 44.9139 7.61889H45.473C45.9248 7.61889 46.1508 7.74314 46.1508 7.99165V19.1744C46.1508 19.4229 45.9248 19.5471 45.473 19.5471H45.3544C44.9026 19.5471 44.6767 19.4229 44.6767 19.1744V11.0245C44.6767 10.6066 44.688 10.296 44.7106 10.0926L44.6428 10.0757C44.4734 10.4146 44.3378 10.6687 44.2361 10.8382L41.271 15.989C41.192 16.1358 41.0677 16.2093 40.8983 16.2093H40.2205ZM51.3994 19.6149C50.5296 19.6149 49.8293 19.4003 49.2984 18.9711C48.7675 18.5418 48.5021 17.9093 48.5021 17.0734C48.5021 16.181 48.7675 15.5146 49.2984 15.074C49.8406 14.6222 50.5014 14.3342 51.2808 14.2099C52.0602 14.0744 53.0091 14.001 54.1273 13.9897V13.1933C54.1273 12.7754 53.9805 12.4365 53.6868 12.1767C53.3931 11.9056 52.9187 11.7701 52.2635 11.7701C51.7665 11.7701 51.3316 11.8322 50.9589 11.9564C50.5861 12.0694 50.2755 12.188 50.027 12.3122C49.7785 12.4252 49.6429 12.4817 49.6203 12.4817C49.5074 12.4817 49.3775 12.3687 49.2306 12.1428C49.0951 11.9169 49.0273 11.7475 49.0273 11.6345C49.0273 11.4877 49.1742 11.3295 49.4679 11.1601C49.7728 10.9907 50.1738 10.8495 50.6708 10.7365C51.1679 10.6122 51.6818 10.5501 52.2127 10.5501C53.2632 10.5501 54.0821 10.7873 54.6695 11.2617C55.2569 11.7249 55.5506 12.3744 55.5506 13.2103V17.0056C55.5506 17.7511 55.5845 18.2877 55.6522 18.6152C55.72 18.9315 55.7539 19.1066 55.7539 19.1405C55.7539 19.276 55.6466 19.3777 55.432 19.4455C55.2174 19.5019 55.0197 19.5302 54.839 19.5302C54.6808 19.5302 54.5622 19.4455 54.4831 19.276C54.4154 19.0953 54.3589 18.9089 54.3137 18.7169C54.2798 18.5249 54.2572 18.4006 54.2459 18.3441C53.4778 19.1913 52.529 19.6149 51.3994 19.6149ZM51.4672 18.378C52.0207 18.378 52.4951 18.2764 52.8904 18.073C53.2971 17.8697 53.7094 17.5817 54.1273 17.2089V15.2096C53.2801 15.2209 52.5855 15.2548 52.0433 15.3113C51.5124 15.3677 51.0436 15.5259 50.637 15.7857C50.2303 16.0455 50.027 16.4465 50.027 16.9887C50.027 17.4405 50.1456 17.785 50.3828 18.0222C50.6313 18.2594 50.9928 18.378 51.4672 18.378ZM60.9034 19.6149C60.3386 19.6149 59.8303 19.4455 59.3785 19.1066C58.938 18.7564 58.7177 18.1465 58.7177 17.2767V11.8717H57.8705C57.7576 11.8717 57.6728 11.8322 57.6164 11.7531C57.5599 11.674 57.5316 11.5441 57.5316 11.3634V11.1601C57.5316 10.9794 57.5599 10.8495 57.6164 10.7704C57.6728 10.6913 57.7576 10.6518 57.8705 10.6518H58.7177L58.921 8.87271C58.9549 8.62421 59.1356 8.49995 59.4632 8.49995H59.6326C59.9715 8.49995 60.1409 8.62421 60.1409 8.87271V10.6518H61.5642C61.6885 10.6518 61.7732 10.6913 61.8184 10.7704C61.8748 10.8495 61.9031 10.9794 61.9031 11.1601V11.3634C61.9031 11.5441 61.8748 11.674 61.8184 11.7531C61.7732 11.8322 61.6885 11.8717 61.5642 11.8717H60.1409V17.1412C60.1409 17.6156 60.22 17.9431 60.3782 18.1239C60.5476 18.3046 60.7735 18.395 61.0559 18.395C61.2705 18.395 61.4287 18.3837 61.5303 18.3611C61.6433 18.3272 61.728 18.3103 61.7845 18.3103C61.8861 18.3103 61.9708 18.4176 62.0386 18.6322C62.1064 18.8355 62.1403 18.9936 62.1403 19.1066C62.1403 19.4455 61.728 19.6149 60.9034 19.6149ZM67.779 19.6149C66.3671 19.6149 65.3222 19.2478 64.6445 18.5136C63.9667 17.7794 63.6279 16.6554 63.6279 15.1418C63.6279 13.6395 63.9611 12.4986 64.6275 11.7192C65.294 10.9398 66.2767 10.5501 67.5757 10.5501C68.7279 10.5501 69.5976 10.9285 70.185 11.6853C70.7724 12.4309 71.0661 13.5265 71.0661 14.9724C71.0661 15.074 70.9983 15.2152 70.8628 15.396C70.7272 15.5767 70.6086 15.6671 70.5069 15.6671H65.1528C65.2206 16.6046 65.4634 17.2936 65.8814 17.7342C66.2993 18.1747 66.9262 18.395 67.7621 18.395C68.2365 18.395 68.6432 18.3385 68.982 18.2255C69.3322 18.1013 69.6202 17.9827 69.8461 17.8697C70.0721 17.7455 70.202 17.6833 70.2358 17.6833C70.3488 17.6833 70.4731 17.7963 70.6086 18.0222C70.7554 18.2481 70.8289 18.4176 70.8289 18.5305C70.8289 18.6661 70.6877 18.8242 70.4053 19.0049C70.1229 19.1744 69.7445 19.3212 69.2701 19.4455C68.8069 19.5584 68.3099 19.6149 67.779 19.6149ZM69.5581 14.4471C69.5581 12.6624 68.8804 11.7701 67.5249 11.7701C66.0677 11.7701 65.277 12.6624 65.1528 14.4471H69.5581ZM74.0323 19.5471C73.5804 19.5471 73.3545 19.4229 73.3545 19.1744V13.2272C73.3545 12.4817 73.3206 11.9508 73.2529 11.6345C73.1851 11.3069 73.1512 11.1262 73.1512 11.0923C73.1512 10.9568 73.2585 10.8608 73.4731 10.8043C73.6877 10.7365 73.8854 10.7026 74.0661 10.7026C74.2243 10.7026 74.3372 10.7873 74.405 10.9568C74.4841 11.1149 74.5406 11.2843 74.5744 11.4651C74.6196 11.6458 74.6479 11.7644 74.6592 11.8209C75.2578 10.9737 75.913 10.5501 76.6246 10.5501C76.9522 10.5501 77.195 10.6066 77.3532 10.7196C77.5226 10.8212 77.6073 10.985 77.6073 11.2109C77.6073 11.4029 77.5735 11.6063 77.5057 11.8209C77.4379 12.0242 77.3588 12.1259 77.2685 12.1259C77.212 12.1259 77.099 12.0976 76.9296 12.0412C76.7715 11.9734 76.5738 11.9395 76.3366 11.9395C76.0429 11.9395 75.7605 12.0412 75.4894 12.2445C75.2183 12.4365 74.9811 12.6794 74.7778 12.973V19.1744C74.7778 19.4229 74.5519 19.5471 74.1 19.5471H74.0323ZM80.2541 19.5471C79.8023 19.5471 79.5764 19.4229 79.5764 19.1744V10.9907C79.5764 10.7421 79.8023 10.6179 80.2541 10.6179H80.3219C80.7737 10.6179 80.9996 10.7421 80.9996 10.9907V19.1744C80.9996 19.4229 80.7737 19.5471 80.3219 19.5471H80.2541ZM80.288 9.43185C79.791 9.43185 79.5425 9.3076 79.5425 9.05909V8.04248C79.5425 7.79397 79.791 7.66972 80.288 7.66972C80.785 7.66972 81.0335 7.79397 81.0335 8.04248V9.05909C81.0335 9.3076 80.785 9.43185 80.288 9.43185ZM86.2462 19.6149C85.3764 19.6149 84.6761 19.4003 84.1452 18.9711C83.6143 18.5418 83.3488 17.9093 83.3488 17.0734C83.3488 16.181 83.6143 15.5146 84.1452 15.074C84.6873 14.6222 85.3481 14.3342 86.1275 14.2099C86.907 14.0744 87.8558 14.001 88.9741 13.9897V13.1933C88.9741 12.7754 88.8272 12.4365 88.5335 12.1767C88.2398 11.9056 87.7654 11.7701 87.1103 11.7701C86.6133 11.7701 86.1784 11.8322 85.8056 11.9564C85.4329 12.0694 85.1222 12.188 84.8737 12.3122C84.6252 12.4252 84.4897 12.4817 84.4671 12.4817C84.3541 12.4817 84.2242 12.3687 84.0774 12.1428C83.9418 11.9169 83.8741 11.7475 83.8741 11.6345C83.8741 11.4877 84.0209 11.3295 84.3146 11.1601C84.6196 10.9907 85.0206 10.8495 85.5176 10.7365C86.0146 10.6122 86.5285 10.5501 87.0594 10.5501C88.1099 10.5501 88.9289 10.7873 89.5163 11.2617C90.1036 11.7249 90.3973 12.3744 90.3973 13.2103V17.0056C90.3973 17.7511 90.4312 18.2877 90.499 18.6152C90.5668 18.9315 90.6006 19.1066 90.6006 19.1405C90.6006 19.276 90.4933 19.3777 90.2787 19.4455C90.0641 19.5019 89.8664 19.5302 89.6857 19.5302C89.5275 19.5302 89.4089 19.4455 89.3299 19.276C89.2621 19.0953 89.2056 18.9089 89.1604 18.7169C89.1266 18.5249 89.104 18.4006 89.0927 18.3441C88.3246 19.1913 87.3757 19.6149 86.2462 19.6149ZM86.3139 18.378C86.8674 18.378 87.3418 18.2764 87.7372 18.073C88.1438 17.8697 88.5561 17.5817 88.9741 17.2089V15.2096C88.1269 15.2209 87.4322 15.2548 86.89 15.3113C86.3591 15.3677 85.8903 15.5259 85.4837 15.7857C85.077 16.0455 84.8737 16.4465 84.8737 16.9887C84.8737 17.4405 84.9923 17.785 85.2295 18.0222C85.478 18.2594 85.8395 18.378 86.3139 18.378ZM95.3266 19.6149C94.7618 19.6149 94.2535 19.4455 93.8016 19.1066C93.3611 18.7564 93.1408 18.1465 93.1408 17.2767V7.14447C93.1408 6.89597 93.3668 6.77171 93.8186 6.77171H93.8864C94.3382 6.77171 94.5641 6.89597 94.5641 7.14447V17.1412C94.5641 17.6156 94.6432 17.9431 94.8013 18.1239C94.9707 18.3046 95.1967 18.395 95.4791 18.395C95.6937 18.395 95.8518 18.3837 95.9535 18.3611C96.0664 18.3272 96.1511 18.3103 96.2076 18.3103C96.3093 18.3103 96.394 18.4176 96.4618 18.6322C96.5296 18.8355 96.5634 18.9936 96.5634 19.1066C96.5634 19.4455 96.1511 19.6149 95.3266 19.6149ZM103.004 19.5132C102.823 19.5132 102.693 19.4737 102.614 19.3946C102.535 19.3156 102.496 19.1857 102.496 19.0049V8.16108C102.496 7.98035 102.535 7.85045 102.614 7.77138C102.693 7.69231 102.823 7.65278 103.004 7.65278H106.426C108.008 7.65278 109.273 8.1272 110.222 9.07603C111.182 10.0136 111.662 11.5159 111.662 13.583C111.662 15.6614 111.182 17.1694 110.222 18.1069C109.273 19.0445 108.008 19.5132 106.426 19.5132H103.004ZM106.308 18.2255C107.449 18.2255 108.369 17.8528 109.07 17.1073C109.77 16.3617 110.12 15.187 110.12 13.583C110.12 11.9903 109.77 10.8212 109.07 10.0757C108.369 9.31889 107.449 8.94049 106.308 8.94049H103.987V18.2255H106.308ZM117.716 19.6149C116.304 19.6149 115.259 19.2478 114.582 18.5136C113.904 17.7794 113.565 16.6554 113.565 15.1418C113.565 13.6395 113.898 12.4986 114.565 11.7192C115.231 10.9398 116.214 10.5501 117.513 10.5501C118.665 10.5501 119.535 10.9285 120.122 11.6853C120.709 12.4309 121.003 13.5265 121.003 14.9724C121.003 15.074 120.935 15.2152 120.8 15.396C120.664 15.5767 120.546 15.6671 120.444 15.6671H115.09C115.158 16.6046 115.4 17.2936 115.818 17.7342C116.236 18.1747 116.863 18.395 117.699 18.395C118.174 18.395 118.58 18.3385 118.919 18.2255C119.269 18.1013 119.557 17.9827 119.783 17.8697C120.009 17.7455 120.139 17.6833 120.173 17.6833C120.286 17.6833 120.41 17.7963 120.546 18.0222C120.693 18.2481 120.766 18.4176 120.766 18.5305C120.766 18.6661 120.625 18.8242 120.342 19.0049C120.06 19.1744 119.682 19.3212 119.207 19.4455C118.744 19.5584 118.247 19.6149 117.716 19.6149ZM119.495 14.4471C119.495 12.6624 118.817 11.7701 117.462 11.7701C116.005 11.7701 115.214 12.6624 115.09 14.4471H119.495ZM125.121 19.6657C124.636 19.6657 124.184 19.6093 123.766 19.4963C123.359 19.372 123.032 19.2252 122.783 19.0558C122.546 18.8863 122.427 18.7338 122.427 18.5983C122.427 18.4853 122.495 18.3159 122.631 18.09C122.778 17.8641 122.908 17.7511 123.02 17.7511C123.043 17.7511 123.15 17.8132 123.342 17.9375C123.534 18.0617 123.772 18.1747 124.054 18.2764C124.348 18.378 124.67 18.4289 125.02 18.4289C125.562 18.4289 125.974 18.3216 126.257 18.1069C126.539 17.8923 126.68 17.5817 126.68 17.175C126.68 16.7684 126.539 16.4578 126.257 16.2431C125.986 16.0285 125.562 15.8252 124.986 15.6332C124.5 15.475 124.094 15.3056 123.766 15.1249C123.438 14.9328 123.167 14.6674 122.953 14.3285C122.738 13.9784 122.631 13.5322 122.631 12.99C122.631 12.5156 122.749 12.092 122.987 11.7192C123.235 11.3465 123.568 11.0584 123.986 10.8551C124.416 10.6405 124.901 10.5332 125.443 10.5332C126.019 10.5332 126.533 10.6066 126.985 10.7534C127.448 10.9003 127.68 11.0697 127.68 11.2617C127.68 11.4086 127.612 11.6006 127.477 11.8378C127.352 12.0637 127.239 12.1767 127.138 12.1767C127.104 12.1654 126.951 12.092 126.68 11.9564C126.42 11.8096 126.059 11.7362 125.596 11.7362C125.155 11.7362 124.794 11.8378 124.512 12.0412C124.229 12.2445 124.088 12.5212 124.088 12.8714C124.088 13.199 124.178 13.4531 124.359 13.6338C124.551 13.8146 124.901 13.9897 125.41 14.1591C126.291 14.4528 126.963 14.8086 127.426 15.2265C127.889 15.6445 128.12 16.2431 128.12 17.0225C128.12 17.5196 127.985 17.9714 127.714 18.378C127.454 18.7734 127.093 19.0897 126.629 19.3269C126.178 19.5528 125.675 19.6657 125.121 19.6657ZM130.985 19.5471C130.534 19.5471 130.308 19.4229 130.308 19.1744V10.9907C130.308 10.7421 130.534 10.6179 130.985 10.6179H131.053C131.505 10.6179 131.731 10.7421 131.731 10.9907V19.1744C131.731 19.4229 131.505 19.5471 131.053 19.5471H130.985ZM131.019 9.43185C130.522 9.43185 130.274 9.3076 130.274 9.05909V8.04248C130.274 7.79397 130.522 7.66972 131.019 7.66972C131.516 7.66972 131.765 7.79397 131.765 8.04248V9.05909C131.765 9.3076 131.516 9.43185 131.019 9.43185ZM137.537 23.1053C135.244 23.1053 134.097 22.3654 134.097 20.8857C134.097 20.4113 134.233 19.982 134.504 19.598C134.786 19.2139 135.142 18.9315 135.571 18.7508L135.588 18.7169C135.159 18.3667 134.944 17.9036 134.944 17.3275C134.944 16.6385 135.249 16.0963 135.859 15.701C135.385 15.4637 135.023 15.1362 134.775 14.7182C134.526 14.3003 134.402 13.8315 134.402 13.3119C134.402 12.5099 134.696 11.8491 135.283 11.3295C135.87 10.8099 136.689 10.5501 137.74 10.5501C138.101 10.5501 138.435 10.584 138.74 10.6518H141.823C141.948 10.6518 142.032 10.6913 142.077 10.7704C142.134 10.8495 142.162 10.9794 142.162 11.1601V11.3634C142.162 11.5441 142.134 11.674 142.077 11.7531C142.032 11.8322 141.948 11.8717 141.823 11.8717C141.643 11.8717 141.422 11.8604 141.162 11.8378C140.914 11.8152 140.699 11.787 140.519 11.7531L140.502 11.787C140.716 12.0242 140.863 12.2614 140.942 12.4986C141.021 12.7245 141.061 12.9956 141.061 13.3119C141.061 14.1252 140.767 14.7916 140.18 15.3113C139.604 15.8309 138.785 16.0907 137.723 16.0907C137.226 16.0907 136.848 16.1754 136.588 16.3448C136.328 16.5029 136.198 16.7627 136.198 17.1242C136.198 17.4066 136.288 17.6269 136.469 17.785C136.661 17.9318 136.898 18.0392 137.181 18.1069C137.463 18.1634 137.853 18.2199 138.35 18.2764L138.841 18.3272C139.711 18.4289 140.383 18.6435 140.858 18.9711C141.332 19.2986 141.569 19.8239 141.569 20.5468C141.569 21.3714 141.225 22.0039 140.536 22.4445C139.858 22.885 138.858 23.1053 137.537 23.1053ZM137.723 14.9046C138.322 14.9046 138.802 14.786 139.163 14.5488C139.525 14.3003 139.705 13.8936 139.705 13.3289C139.705 12.2671 139.045 11.7362 137.723 11.7362C136.413 11.7362 135.758 12.2671 135.758 13.3289C135.758 14.3794 136.413 14.9046 137.723 14.9046ZM137.723 21.9362C138.57 21.9362 139.197 21.8289 139.604 21.6142C140.01 21.4109 140.214 21.0833 140.214 20.6315C140.214 20.3378 140.101 20.1063 139.875 19.9368C139.66 19.7787 139.395 19.6657 139.078 19.598C138.762 19.5302 138.339 19.4681 137.808 19.4116C137.13 19.3438 136.667 19.2704 136.418 19.1913C135.752 19.5076 135.419 19.982 135.419 20.6146C135.419 21.089 135.594 21.4279 135.944 21.6312C136.305 21.8345 136.898 21.9362 137.723 21.9362ZM144.634 19.5471C144.182 19.5471 143.956 19.4229 143.956 19.1744V13.2272C143.956 12.4817 143.923 11.9508 143.855 11.6345C143.787 11.3069 143.753 11.1262 143.753 11.0923C143.753 10.9568 143.86 10.8608 144.075 10.8043C144.29 10.7365 144.487 10.7026 144.668 10.7026C144.826 10.7026 144.939 10.7873 145.007 10.9568C145.086 11.1149 145.143 11.2843 145.176 11.4651C145.222 11.6458 145.25 11.7644 145.261 11.8209C145.623 11.4255 146.035 11.1149 146.498 10.889C146.961 10.6631 147.43 10.5501 147.904 10.5501C148.763 10.5501 149.435 10.793 149.921 11.2787C150.418 11.7644 150.666 12.4365 150.666 13.295V19.1744C150.666 19.4229 150.44 19.5471 149.988 19.5471H149.921C149.469 19.5471 149.243 19.4229 149.243 19.1744V13.4305C149.243 12.9109 149.09 12.5099 148.785 12.2275C148.492 11.9338 148.068 11.787 147.515 11.787C147.131 11.787 146.746 11.8943 146.362 12.1089C145.99 12.3235 145.662 12.6116 145.38 12.973V19.1744C145.38 19.4229 145.154 19.5471 144.702 19.5471H144.634ZM158.322 19.5471C157.871 19.5471 157.645 19.4229 157.645 19.1744V7.99165C157.645 7.74314 157.871 7.61889 158.322 7.61889H158.458C158.91 7.61889 159.136 7.74314 159.136 7.99165V19.1744C159.136 19.4229 158.91 19.5471 158.458 19.5471H158.322ZM165.849 19.6149C164.448 19.6149 163.403 19.2534 162.714 18.5305C162.025 17.8076 161.681 16.6441 161.681 15.0402C161.681 13.4249 162.065 12.2727 162.833 11.5837C163.601 10.8946 164.555 10.5501 165.696 10.5501C166.351 10.5501 166.939 10.6292 167.458 10.7873C167.978 10.9455 168.238 11.1262 168.238 11.3295C168.238 11.4764 168.17 11.6684 168.035 11.9056C167.91 12.1315 167.797 12.2445 167.696 12.2445C167.673 12.2445 167.645 12.2388 167.611 12.2275C167.588 12.2049 167.554 12.188 167.509 12.1767C166.899 11.9056 166.284 11.7701 165.662 11.7701C164.025 11.7701 163.206 12.8488 163.206 15.0063C163.206 16.2036 163.403 17.0677 163.799 17.5986C164.205 18.1295 164.883 18.395 165.832 18.395C166.521 18.395 167.159 18.2481 167.746 17.9544L167.933 17.8867C168.046 17.8867 168.17 17.9996 168.306 18.2255C168.441 18.4402 168.509 18.6152 168.509 18.7508C168.509 18.8863 168.385 19.0219 168.136 19.1574C167.899 19.2817 167.577 19.389 167.17 19.4794C166.764 19.5697 166.323 19.6149 165.849 19.6149ZM173.886 19.6149C172.61 19.6149 171.633 19.2309 170.955 18.4627C170.288 17.6946 169.955 16.582 169.955 15.1249C169.955 13.6564 170.294 12.5269 170.972 11.7362C171.649 10.9455 172.621 10.5501 173.886 10.5501C175.129 10.5501 176.077 10.9455 176.733 11.7362C177.399 12.5156 177.732 13.6451 177.732 15.1249C177.732 16.5933 177.405 17.7116 176.749 18.4797C176.106 19.2365 175.151 19.6149 173.886 19.6149ZM173.835 18.395C174.66 18.395 175.27 18.1295 175.665 17.5986C176.06 17.0564 176.258 16.2206 176.258 15.091C176.258 13.9614 176.06 13.1255 175.665 12.5833C175.27 12.0412 174.66 11.7701 173.835 11.7701C173.011 11.7701 172.406 12.0412 172.022 12.5833C171.638 13.1142 171.446 13.9501 171.446 15.091C171.446 16.2206 171.638 17.0564 172.022 17.5986C172.406 18.1295 173.011 18.395 173.835 18.395ZM180.805 19.5471C180.353 19.5471 180.127 19.4229 180.127 19.1744V13.2272C180.127 12.4817 180.093 11.9508 180.025 11.6345C179.957 11.3069 179.924 11.1262 179.924 11.0923C179.924 10.9568 180.031 10.8608 180.246 10.8043C180.46 10.7365 180.658 10.7026 180.839 10.7026C180.997 10.7026 181.11 10.7873 181.177 10.9568C181.256 11.1149 181.313 11.2843 181.347 11.4651C181.392 11.6458 181.42 11.7644 181.432 11.8209C181.793 11.4255 182.205 11.1149 182.668 10.889C183.132 10.6631 183.6 10.5501 184.075 10.5501C184.933 10.5501 185.605 10.793 186.091 11.2787C186.588 11.7644 186.837 12.4365 186.837 13.295V19.1744C186.837 19.4229 186.611 19.5471 186.159 19.5471H186.091C185.639 19.5471 185.413 19.4229 185.413 19.1744V13.4305C185.413 12.9109 185.261 12.5099 184.956 12.2275C184.662 11.9338 184.239 11.787 183.685 11.787C183.301 11.787 182.917 11.8943 182.533 12.1089C182.16 12.3235 181.833 12.6116 181.55 12.973V19.1744C181.55 19.4229 181.324 19.5471 180.872 19.5471H180.805Z" fill="black" fill-opacity="0.6"/>
<path d="M24.2698 13.0443C24.2698 10.9543 23.5054 9.01878 21.9881 7.25824V18.8407C23.5054 17.1317 24.2698 15.1961 24.2698 13.0443ZM20.4251 20.2512H7.59045C8.36623 20.8175 9.38159 21.2808 10.6365 21.7029C11.8801 22.1044 13.0095 22.3103 14.0021 22.3103C15.006 22.3103 16.1241 22.1044 17.3676 21.7029C18.6225 21.2808 19.6379 20.8175 20.4251 20.2512ZM12.8612 18.1921L8.29778 9.95567V18.1921H12.8612ZM19.7064 9.95567L15.1429 18.1921H19.7064V9.95567ZM14.0021 15.6491L18.2803 7.89656H9.72385L14.0021 15.6491ZM20.4251 5.83746C18.5313 4.46815 16.3865 3.77835 14.0021 3.77835C11.6177 3.77835 9.47286 4.46815 7.59045 5.83746H20.4251ZM6.01607 18.8407V7.25824C4.49873 9.01878 3.73435 10.9543 3.73435 13.0443C3.73435 15.1961 4.49873 17.1317 6.01607 18.8407ZM26.5515 13.0443C26.5515 16.1639 25.3422 18.8407 22.8779 21.0543C20.4251 23.2781 17.4589 24.3694 14.0021 24.3694C10.5453 24.3694 7.59045 23.2781 5.1262 21.0543C2.66194 18.8407 1.45264 16.1639 1.45264 13.0443C1.45264 9.92479 2.66194 7.25824 5.1262 5.0344C7.59045 2.81057 10.5453 1.71924 14.0021 1.71924C17.4589 1.71924 20.4251 2.81057 22.8779 5.0344C25.3422 7.25824 26.5515 9.92479 26.5515 13.0443Z" fill="black" fill-opacity="0.6"/>
</svg>
