<svg width="156" height="239" viewBox="0 0 156 239" fill="none" xmlns="http://www.w3.org/2000/svg">
<path d="M95.2636 137.357C95.2636 141.435 94.0529 145.422 91.7845 148.813C89.516 152.203 86.2918 154.846 82.5196 156.407C78.7473 157.968 74.5965 158.376 70.5919 157.58C66.5873 156.785 62.9088 154.821 60.0217 151.937C57.1345 149.053 55.1683 145.379 54.3718 141.379C53.5752 137.38 53.984 133.234 55.5466 129.466C57.1091 125.698 59.7551 122.478 63.15 120.212C66.545 117.946 70.5363 116.737 74.6194 116.737C80.0946 116.737 85.3455 118.909 89.2171 122.776C93.0886 126.643 95.2636 131.888 95.2636 137.357Z" fill="#3A3A3A"/>
<path d="M55.2577 217.272H55.4627C57.0657 217.176 58.6214 216.696 59.9961 215.871C61.3708 215.046 62.5233 213.901 63.3545 212.536L85.262 175.056C85.8674 173.232 85.7829 171.252 85.0244 169.485C84.2658 167.719 82.8853 166.288 81.1412 165.46C79.3972 164.633 77.4094 164.466 75.5502 164.99C73.691 165.514 72.088 166.694 71.0413 168.309L46.8022 202.809L44.0093 200.518L64.7637 171.109C49.5438 175.056 35.5538 187.787 35.7332 210.27C35.7332 220.225 40.8577 224.325 45.9823 224.146" fill="#3A3A3A"/>
<path d="M90.0427 170.444C90.1403 172.43 89.7411 174.409 88.8817 176.2L66.8742 214.443C66.6314 214.959 66.3466 215.453 66.0228 215.921L98.2987 214.78C98.8087 214.578 99.2411 214.217 99.5334 213.751C99.8256 213.285 99.9625 212.737 99.9241 212.188V201.428L102.504 204.021V218.981C101.968 218.878 101.424 218.826 100.879 218.825L59.5986 220.64C57.5593 220.757 55.6417 221.653 54.2389 223.145C52.8362 224.637 52.0547 226.612 52.0547 228.665C52.0547 230.717 52.8362 232.692 54.2389 234.184C55.6417 235.676 57.5593 236.573 59.5986 236.689L100.879 238.504C110.27 239.023 120.229 233.552 120.229 223.777C120.255 185.016 104.362 174.697 90.0427 170.444Z" fill="#3A3A3A"/>
<path d="M119.269 123.93C119.269 124.973 118.959 125.993 118.379 126.86C117.798 127.728 116.974 128.404 116.009 128.803C115.044 129.202 113.982 129.307 112.957 129.103C111.933 128.9 110.992 128.397 110.253 127.66C109.515 126.922 109.012 125.982 108.808 124.959C108.604 123.936 108.709 122.875 109.109 121.911C109.508 120.947 110.185 120.124 111.054 119.544C111.922 118.964 112.943 118.655 113.988 118.655C114.682 118.651 115.371 118.785 116.013 119.049C116.655 119.313 117.239 119.701 117.73 120.192C118.221 120.682 118.61 121.265 118.874 121.907C119.138 122.548 119.272 123.236 119.269 123.93V123.93Z" stroke="#3A3A3A" stroke-width="5" stroke-miterlimit="10"/>
<path d="M130.311 119.614C134.819 119.614 138.473 116.179 138.473 111.942C138.473 107.704 134.819 104.269 130.311 104.269C125.804 104.269 122.149 107.704 122.149 111.942C122.149 116.179 125.804 119.614 130.311 119.614Z" stroke="#3A3A3A" stroke-width="5" stroke-miterlimit="10"/>
<path d="M135.08 2.60818H20.8797C11.0517 2.60818 3.08447 10.6494 3.08447 20.5688V79.5949C3.08447 89.5143 11.0517 97.5556 20.8797 97.5556H135.08C144.908 97.5556 152.876 89.5143 152.876 79.5949V20.5688C152.876 10.6494 144.908 2.60818 135.08 2.60818Z" stroke="#3A3A3A" stroke-width="5" stroke-miterlimit="10"/>
<path d="M108.955 49.2187L79.7891 20.4468C78.6225 19.2959 77.0021 18.5926 75.2198 18.5926H52.5351C48.9703 18.5926 46.0537 21.4698 46.0537 24.9864V47.3645C46.0537 49.1228 46.7667 50.7212 47.9657 51.9041L77.1318 80.676C78.2984 81.8269 79.9187 82.5302 81.7011 82.5302C83.4835 82.5302 85.1038 81.8269 86.2704 80.6441L108.955 58.2659C110.154 57.115 110.867 55.5166 110.867 53.7583C110.867 52 110.122 50.3696 108.955 49.2187ZM81.7011 76.1684L52.5351 47.3645V24.9864H75.2198V24.9544L104.386 53.7263L81.7011 76.1684Z" fill="#3A3A3A"/>
<path d="M60.6364 37.7739C63.3211 37.7739 65.4974 35.6269 65.4974 32.9786C65.4974 30.3302 63.3211 28.1832 60.6364 28.1832C57.9517 28.1832 55.7754 30.3302 55.7754 32.9786C55.7754 35.6269 57.9517 37.7739 60.6364 37.7739Z" fill="#3A3A3A"/>
</svg>
